name D:\school\WTK\thesis\model\3dpredictsim\Results\MidTarsalJoint\Fal_s1_bCst_PF_Natali2010_ls150_MT_k50_d020_MTP_T5_ig23.mot
datacolumns 128
datarows 4
range 1.19442850 1.23026135
endheader
time	pelvis_tilt	pelvis_list	pelvis_rotation	pelvis_tx	pelvis_ty	pelvis_tz	hip_flexion_l	hip_adduction_l	hip_rotation_l	hip_flexion_r	hip_adduction_r	hip_rotation_r	knee_angle_l	knee_angle_r	ankle_angle_l	ankle_angle_r	subtalar_angle_l	subtalar_angle_r	mtj_angle_l	mtj_angle_r	mtp_angle_l	mtp_angle_r	lumbar_extension	lumbar_bending	lumbar_rotation	arm_flex_l	arm_add_l	arm_rot_l	arm_flex_r	arm_add_r	arm_rot_r	elbow_flex_l	elbow_flex_r	pro_sup_l	pro_sup_r	glut_med1_l/activation	glut_med2_l/activation	glut_med3_l/activation	glut_min1_l/activation	glut_min2_l/activation	glut_min3_l/activation	semimem_l/activation	semiten_l/activation	bifemlh_l/activation	bifemsh_l/activation	sar_l/activation	add_long_l/activation	add_brev_l/activation	add_mag1_l/activation	add_mag2_l/activation	add_mag3_l/activation	tfl_l/activation	pect_l/activation	grac_l/activation	glut_max1_l/activation	glut_max2_l/activation	glut_max3_l/activation	iliacus_l/activation	psoas_l/activation	quad_fem_l/activation	gem_l/activation	peri_l/activation	rect_fem_l/activation	vas_med_l/activation	vas_int_l/activation	vas_lat_l/activation	med_gas_l/activation	lat_gas_l/activation	soleus_l/activation	tib_post_l/activation	flex_dig_l/activation	flex_hal_l/activation	tib_ant_l/activation	per_brev_l/activation	per_long_l/activation	per_tert_l/activation	ext_dig_l/activation	ext_hal_l/activation	ercspn_l/activation	intobl_l/activation	extobl_l/activation	glut_med1_r/activation	glut_med2_r/activation	glut_med3_r/activation	glut_min1_r/activation	glut_min2_r/activation	glut_min3_r/activation	semimem_r/activation	semiten_r/activation	bifemlh_r/activation	bifemsh_r/activation	sar_r/activation	add_long_r/activation	add_brev_r/activation	add_mag1_r/activation	add_mag2_r/activation	add_mag3_r/activation	tfl_r/activation	pect_r/activation	grac_r/activation	glut_max1_r/activation	glut_max2_r/activation	glut_max3_r/activation	iliacus_r/activation	psoas_r/activation	quad_fem_r/activation	gem_r/activation	peri_r/activation	rect_fem_r/activation	vas_med_r/activation	vas_int_r/activation	vas_lat_r/activation	med_gas_r/activation	lat_gas_r/activation	soleus_r/activation	tib_post_r/activation	flex_dig_r/activation	flex_hal_r/activation	tib_ant_r/activation	per_brev_r/activation	per_long_r/activation	per_tert_r/activation	ext_dig_r/activation	ext_hal_r/activation	ercspn_r/activation	intobl_r/activation	extobl_r/activation	
          1.19442850	         -2.92918637	         -2.68949855	          6.83503666	          1.49303562	          0.91723140	         -0.00020931	        -15.07028965	         -2.65951848	          6.85476705	         29.90116747	          3.88634887	         -0.73970577	        -15.02039988	        -13.31865639	         -9.65538472	          3.04146301	         16.19343273	         -2.92196558	         11.92652127	         -0.13504753	          0.17706555	         -0.74507893	         -1.60656264	          0.77173585	         -2.23498161	          3.77257121	        -13.48518149	         15.87556058	         -7.77577791	        -13.55445924	          4.32114388	         42.71689998	         18.33882578	         86.51662706	         86.51662706	          0.28017627	          0.08826691	          0.05000010	          0.28752322	          0.18661548	          0.09422974	          0.05000096	          0.05000015	          0.05000012	          0.05000016	          0.09268699	          0.10953482	          0.07534642	          0.05000097	          0.05000127	          0.05000032	          0.26547492	          0.12135293	          0.05000156	          0.05000129	          0.05000078	          0.05000042	          0.32078952	          0.45354242	          0.05000027	          0.05000072	          0.05000035	          0.23093872	          0.11938248	          0.05000116	          0.05000091	          0.24840711	          0.35062240	          0.36130664	          0.22338955	          0.16008387	          0.24013235	          0.05000000	          0.13905107	          0.22260427	          0.05000009	          0.05000001	          0.05000008	          0.05000001	          0.05808284	          0.06951937	          0.05995349	          0.05995328	          0.05000007	          0.05995365	          0.05995360	          0.05000467	          0.05004197	          0.05956817	          0.15135438	          0.05000014	          0.05000085	          0.12393518	          0.29345242	          0.14907137	          0.18649565	          0.11819935	          0.05000013	          0.08621022	          0.11008599	          0.05000020	          0.05000016	          0.15123914	          0.05995353	          0.05414920	          0.24941205	          0.23899077	          0.13413068	          0.06901207	          0.18951864	          0.18914393	          0.16324042	          0.05741630	          0.05702628	          0.05842730	          0.05000003	          0.05000043	          0.05000028	          0.57926702	          0.26867296	          0.15855236	          0.34332216	          0.49041594	          0.25615223	          0.05000005	          0.10861447	          0.10336407	
          1.20637278	         -2.92258743	         -2.78374345	          7.07132513	          1.51163584	          0.91594454	         -0.00002331	        -14.77902350	         -2.96819639	          6.54648338	         29.06764512	          4.29911741	         -0.44740773	        -17.18162705	        -13.30339622	        -10.36575023	          2.31724037	         16.93035098	         -3.40351969	         10.18396395	         -0.04412388	          1.59374799	         -0.77731190	         -1.38740230	          1.00052415	         -2.32056626	          3.34132056	        -13.52235053	         16.20422985	         -8.77406907	        -13.55725793	          4.17778994	         43.92345004	         17.99267543	         86.51662706	         86.51662706	          0.23366109	          0.07361275	          0.05995348	          0.23978837	          0.15563341	          0.07858565	          0.05000305	          0.05000040	          0.05000057	          0.05000016	          0.07729967	          0.20934997	          0.11774445	          0.05996176	          0.05995217	          0.05995314	          0.22140052	          0.10336180	          0.05092394	          0.05001946	          0.05001271	          0.05006469	          0.26753271	          0.41825852	          0.05995359	          0.05995361	          0.05000647	          0.19259800	          0.09956323	          0.12393503	          0.12393520	          0.20716624	          0.29241163	          0.30132204	          0.18630215	          0.13350665	          0.20026536	          0.06078979	          0.11596581	          0.23289896	          0.05000011	          0.06425024	          0.05000052	          0.06296299	          0.05995361	          0.07188535	          0.05000002	          0.05000005	          0.11490233	          0.05000009	          0.05000008	          0.05000009	          0.05000009	          0.05000013	          0.12622639	          0.05000006	          0.05000030	          0.10335938	          0.24473331	          0.30323478	          0.23641606	          0.13457674	          0.05000059	          0.07189948	          0.10389793	          0.09429260	          0.11143388	          0.12613037	          0.05000012	          0.05000020	          0.35112340	          0.19931325	          0.11186218	          0.05995396	          0.22869314	          0.23066992	          0.19248633	          0.05000056	          0.05000111	          0.05005192	          0.05995353	          0.05000144	          0.05995320	          0.51510632	          0.31512924	          0.18270039	          0.33038859	          0.46465288	          0.21362559	          0.05000000	          0.09058216	          0.08620343	
          1.21831707	         -2.91081870	         -2.87450057	          7.26896242	          1.53052304	          0.91463562	          0.00013767	        -14.42459360	         -3.26361706	          6.23645028	         28.05542949	          4.62984481	         -0.12676400	        -19.41417716	        -13.55088673	        -11.10741555	          1.87439501	         17.52257928	         -3.91546912	          8.03390244	         -0.31013801	          3.28172565	         -0.81015872	         -1.15028287	          1.23237789	         -2.39320693	          2.83664673	        -13.55966118	         16.45836045	         -9.76475480	        -13.56643145	          4.12531749	         45.08248030	         17.62941760	         86.51662706	         86.51662706	          0.35093838	          0.06139149	          0.05000004	          0.31445853	          0.12979509	          0.06553882	          0.05000153	          0.05000012	          0.05000009	          0.05000024	          0.06446777	          0.17459411	          0.11015975	          0.05000702	          0.05000055	          0.05000023	          0.18464367	          0.08620372	          0.05000064	          0.05000062	          0.05000033	          0.05000013	          0.22312076	          0.38761356	          0.05000009	          0.05000036	          0.05000010	          0.16062264	          0.08303370	          0.10335925	          0.10335937	          0.17277223	          0.24386508	          0.25129616	          0.15537204	          0.11134178	          0.16701711	          0.13296787	          0.18711236	          0.19423283	          0.17565942	          0.16565312	          0.05000026	          0.07353993	          0.05000004	          0.05995086	          0.26417821	          0.28922819	          0.35592507	          0.37084418	          0.21196182	          0.20124618	          0.07534993	          0.09253735	          0.11199287	          0.07188885	          0.05001093	          0.08619956	          0.20410240	          0.25289145	          0.19716616	          0.12866734	          0.05000021	          0.05996325	          0.08664951	          0.20538953	          0.15629320	          0.10519020	          0.05000106	          0.05000038	          0.29282951	          0.16622315	          0.27975201	          0.05000035	          0.19072530	          0.19237392	          0.16052957	          0.05000007	          0.05000010	          0.05000002	          0.05000001	          0.05000007	          0.05000008	          0.61946854	          0.29459552	          0.15236843	          0.62722394	          0.55529429	          0.30596384	          0.06704341	          0.09895752	          0.07189183	
          1.23026135	         -2.89678434	         -2.95246460	          7.42329379	          1.54936129	          0.91342581	          0.00032216	        -13.94133645	         -3.53406693	          5.94395036	         27.01442954	          4.94072140	          0.19077048	        -21.79576290	        -13.78533211	        -11.81969711	          1.42956804	         17.99323393	         -4.45698839	          5.56492582	         -0.38613218	          4.85231175	         -0.73677603	         -0.92752979	          1.45707151	         -2.45382266	          2.32063008	        -13.59800705	         16.66309858	        -10.67497572	        -13.57470380	          4.17841664	         46.14511066	         17.20942144	         86.51662706	         86.51662706	          0.29267520	          0.05119927	          0.05000013	          0.26225182	          0.10824644	          0.05465809	          0.05000259	          0.05000016	          0.05000020	          0.05000006	          0.05376492	          0.16257056	          0.12843455	          0.05000089	          0.06986423	          0.11492683	          0.15398899	          0.07189227	          0.05000044	          0.05000511	          0.05000313	          0.05000232	          0.18607798	          0.33580320	          0.05000024	          0.05000091	          0.05000020	          0.13395587	          0.08619965	          0.08619968	          0.08619964	          0.14408836	          0.20337829	          0.20957564	          0.12957701	          0.09285680	          0.13928880	          0.24641869	          0.15604776	          0.16198605	          0.39576610	          0.21834666	          0.18230950	          0.10930995	          0.05000001	          0.05000003	          0.40614434	          0.47279941	          0.53945607	          0.30927689	          0.34281799	          0.45336214	          0.06284692	          0.09634854	          0.09339979	          0.05995385	          0.05000021	          0.07188862	          0.17021710	          0.21090633	          0.17280538	          0.16136876	          0.05000024	          0.05000877	          0.07226449	          0.30722455	          0.22295665	          0.16497817	          0.05000004	          0.05000005	          0.24421364	          0.13862666	          0.24984748	          0.05000003	          0.27248736	          0.27803301	          0.22575581	          0.05000001	          0.05000004	          0.05000000	          0.09843243	          0.05000174	          0.05000047	          0.73383935	          0.24568641	          0.12707204	          0.52309162	          0.54700951	          0.41934384	          0.09188939	          0.08252847	          0.05995626	
